<?xml version="1.0" encoding="UTF-8"?>
<svg width="310px" height="86px" viewBox="0 0 310 86" version="1.1" xmlns="http://www.w3.org/2000/svg" xmlns:xlink="http://www.w3.org/1999/xlink">
    <!-- Generator: Sketch 46.2 (44496) - http://www.bohemiancoding.com/sketch -->
    <title>LOGO</title>
    <desc>Created with Sketch.</desc>
    <defs></defs>
    <g id="Logo" stroke="none" stroke-width="1" fill="none" fill-rule="evenodd">
        <g id="LOGO">
            <path d="M67.9333759,72.1858237 C64.3058266,77.3072953 60.0749977,81.9249033 55.3652592,85.9544858 C78.4691278,86.9145232 99.4945732,70.6397726 104.100401,46.9448415 C104.850251,43.0871986 105.122908,39.2488774 104.959886,35.4923284 C104.956326,35.4942842 104.952767,35.4962397 104.949207,35.498195 C104.63161,15.8389284 88.5960424,2.47964585e-14 68.8610954,2.84217094e-14 L36.0929119,2.84217094e-14 L36.0929119,2.84217094e-14 C16.1593471,3.20834459e-14 -2.44115763e-15,16.1593471 0,36.0929119 C2.44115763e-15,56.0264767 16.1593471,72.1858237 36.0929119,72.1858237 L36.0929119,72.1858237 L67.9333759,72.1858237 Z" id="Combined-Shape" fill="#0082D7"></path>
            <path d="M123.464,62 L137.432,62 L137.432,44 L161.264,44 L161.264,32.408 L137.432,32.408 L137.432,23.84 L163.784,23.84 L163.784,11.6 L123.464,11.6 L123.464,62 Z M186.12,62.936 C173.664,62.936 164.664,53.792 164.664,42.704 L164.664,42.56 C164.664,31.472 173.736,22.184 186.264,22.184 C198.72,22.184 207.72,31.328 207.72,42.416 L207.72,42.56 C207.72,53.648 198.648,62.936 186.12,62.936 Z M186.264,51.344 C191.232,51.344 194.4,47.384 194.4,42.704 L194.4,42.56 C194.4,37.808 190.944,33.776 186.12,33.776 C181.152,33.776 177.984,37.736 177.984,42.416 L177.984,42.56 C177.984,47.312 181.44,51.344 186.264,51.344 Z M239.128,73.52 L239.128,56.816 C236.464,60.056 233.08,62.864 227.248,62.864 C218.032,62.864 210.04,55.16 210.04,42.704 L210.04,42.56 C210.04,29.888 217.96,22.184 227.176,22.184 C233.08,22.184 236.536,24.848 239.128,27.8 L239.128,23.048 L252.808,23.048 L252.808,73.52 L239.128,73.52 Z M231.424,51.416 C235.816,51.416 239.344,47.744 239.344,42.56 L239.344,42.416 C239.344,37.304 235.816,33.632 231.424,33.632 C227.032,33.632 223.432,37.232 223.432,42.416 L223.432,42.56 C223.432,47.744 227.032,51.416 231.424,51.416 Z M258.152,19.52 L272.408,19.52 L272.408,9.44 L258.152,9.44 L258.152,19.52 Z M258.44,62 L272.12,62 L272.12,23.048 L258.44,23.048 L258.44,62 Z M293.232,62.864 C302.736,62.864 309.144,58.4 309.144,49.832 L309.144,49.688 C309.144,42.128 303.024,39.464 295.32,37.304 C291.216,36.08 288.984,35.36 288.984,33.848 L288.984,33.704 C288.984,32.624 290.064,31.832 292.152,31.832 C295.248,31.832 299.64,33.2 303.672,35.432 L308.352,26.792 C303.888,23.912 297.984,22.256 292.296,22.256 C283.296,22.256 276.672,26.864 276.672,35.144 L276.672,35.288 C276.672,43.136 282.792,45.728 290.496,47.744 C294.6,48.896 296.76,49.544 296.76,51.056 L296.76,51.2 C296.76,52.568 295.68,53.288 293.304,53.288 C289.272,53.288 284.376,51.776 279.912,48.824 L274.8,57.104 C280.2,60.992 286.68,62.864 293.232,62.864 Z" id="Foqis" fill="#273F5B"></path>
        </g>
    </g>
</svg>